<svg version="1.1" xmlns="http://www.w3.org/2000/svg" viewBox="0 0 1104.552734375 560.26953125" width="2209.10546875" height="1120.5390625">
  <!-- svg-source:excalidraw -->
  
  <defs>
    <style class="style-fonts">
      @font-face {
        font-family: "Virgil";
        src: url("https://excalidraw.com/Virgil.woff2");
      }
      @font-face {
        font-family: "Cascadia";
        src: url("https://excalidraw.com/Cascadia.woff2");
      }
      @font-face {
        font-family: "Assistant";
        src: url("https://excalidraw.com/Assistant-Regular.woff2");
      }
    </style>
    
  </defs>
  <rect x="0" y="0" width="1104.552734375" height="560.26953125" fill="#ffffff"></rect><g stroke-linecap="round" transform="translate(717.068359375 10) rotate(0 124.193359375 44.443359375)"><path d="M22.22 0 C86.48 -2.85, 155.12 0.67, 226.17 0 C240.36 -0.38, 251.4 5.17, 248.39 22.22 C245.98 37.54, 246.67 53.3, 248.39 66.67 C250.17 84.8, 239.58 85.72, 226.17 88.89 C166.51 87.91, 100.54 88.86, 22.22 88.89 C4.39 86.23, -0.75 81.09, 0 66.67 C-1.26 55.62, -1.25 45.06, 0 22.22 C2.81 5.77, 8.97 2.12, 22.22 0" stroke="none" stroke-width="0" fill="#ffec99"></path><path d="M22.22 0 C94.8 0.76, 171.1 0.19, 226.17 0 M22.22 0 C72.82 0.99, 124.82 1.79, 226.17 0 M226.17 0 C242.03 1.69, 247.64 6.68, 248.39 22.22 M226.17 0 C242.77 -1.61, 250.58 8.04, 248.39 22.22 M248.39 22.22 C248.28 34.15, 249.99 45.51, 248.39 66.67 M248.39 22.22 C247.68 38.55, 248.83 55.86, 248.39 66.67 M248.39 66.67 C247.25 80.24, 239.68 89.31, 226.17 88.89 M248.39 66.67 C247.24 81.79, 241.25 89.61, 226.17 88.89 M226.17 88.89 C174.03 91.96, 119.81 91.03, 22.22 88.89 M226.17 88.89 C169.63 88.81, 113.42 88.27, 22.22 88.89 M22.22 88.89 C8.79 88.34, 0.99 80.75, 0 66.67 M22.22 88.89 C6.29 87.5, -0.4 81.02, 0 66.67 M0 66.67 C-0.12 52.8, 1.57 36.61, 0 22.22 M0 66.67 C-0.49 53.21, 0.96 40.83, 0 22.22 M0 22.22 C-0.56 7.96, 9.15 -1.95, 22.22 0 M0 22.22 C1.24 7.15, 7.99 -1.85, 22.22 0" stroke="#1e1e1e" stroke-width="2" fill="none"></path></g><g transform="translate(726.41796875 37.64335937499999) rotate(0 114.84375 16.799999999999997)"><text x="114.84375" y="27.0375" font-family="Cascadia, Segoe UI Emoji" font-size="28px" fill="#1e1e1e" text-anchor="middle" style="white-space: pre;" direction="ltr" dominant-baseline="alphabetic">assets/images/</text></g><g stroke-linecap="round" transform="translate(65.689453125 461.3828125) rotate(0 124.193359375 44.443359375)"><path d="M22.22 0 C68.06 2.73, 117.38 -0.7, 226.17 0 C242.6 -1.18, 250.07 4.39, 248.39 22.22 C246.19 37.58, 251.63 46.14, 248.39 66.67 C250.95 80.09, 240.84 91.81, 226.17 88.89 C162.56 84.04, 103.3 83.94, 22.22 88.89 C6.19 85.93, -1.32 80.44, 0 66.67 C2.88 53.54, -1.18 38.86, 0 22.22 C-3.13 9.2, 5.96 3.21, 22.22 0" stroke="none" stroke-width="0" fill="#b2f2bb"></path><path d="M22.22 0 C75.25 -0.78, 124.96 -0.92, 226.17 0 M22.22 0 C100.21 0.6, 175.67 -0.67, 226.17 0 M226.17 0 C240.44 -1.13, 246.63 6.94, 248.39 22.22 M226.17 0 C240.06 1.68, 247.76 8.99, 248.39 22.22 M248.39 22.22 C247.1 35.93, 247.67 47.39, 248.39 66.67 M248.39 22.22 C248.08 31.71, 248.37 43.41, 248.39 66.67 M248.39 66.67 C250.29 82.8, 242.89 90.6, 226.17 88.89 M248.39 66.67 C247.73 80.53, 239.75 88.98, 226.17 88.89 M226.17 88.89 C149.76 88.86, 72.09 88.84, 22.22 88.89 M226.17 88.89 C174.68 86.92, 122.42 87.08, 22.22 88.89 M22.22 88.89 C5.62 88.66, 0.99 80.82, 0 66.67 M22.22 88.89 C8.74 89.96, 1.93 81.89, 0 66.67 M0 66.67 C1.55 47.59, 0.52 31.04, 0 22.22 M0 66.67 C0.52 55.25, -0.36 45.07, 0 22.22 M0 22.22 C0.28 6.95, 5.87 1.88, 22.22 0 M0 22.22 C-0.57 7.69, 5.17 1.99, 22.22 0" stroke="#1e1e1e" stroke-width="2" fill="none"></path></g><g transform="translate(107.8515625 489.02617187500005) rotate(0 82.03125 16.80000000000001)"><text x="82.03125" y="27.0375" font-family="Cascadia, Segoe UI Emoji" font-size="28px" fill="#1e1e1e" text-anchor="middle" style="white-space: pre;" direction="ltr" dominant-baseline="alphabetic">index.html</text></g><g stroke-linecap="round" transform="translate(307.744140625 247.45703125) rotate(0 124.193359375 44.443359375)"><path d="M22.22 0 C101.8 1.35, 176.48 -0.72, 226.17 0 C241.34 3.48, 251.02 5.24, 248.39 22.22 C247.92 36.89, 245.56 50, 248.39 66.67 C250.05 81.7, 239.57 85.48, 226.17 88.89 C170.32 92.4, 123.55 89.1, 22.22 88.89 C9.71 92.05, 2.28 83.13, 0 66.67 C1.5 52.62, 2.39 33.13, 0 22.22 C2.14 7.47, 10.63 -3.18, 22.22 0" stroke="none" stroke-width="0" fill="#b2f2bb"></path><path d="M22.22 0 C70.3 0.39, 119.07 -2.92, 226.17 0 M22.22 0 C81.69 0.29, 138.91 -0.23, 226.17 0 M226.17 0 C242.32 -1.47, 248.38 6.86, 248.39 22.22 M226.17 0 C240.98 1.93, 247.93 5.37, 248.39 22.22 M248.39 22.22 C248.91 35.3, 247.81 51.32, 248.39 66.67 M248.39 22.22 C247.99 38.92, 247.93 55.58, 248.39 66.67 M248.39 66.67 C247.69 81.92, 241.38 89.08, 226.17 88.89 M248.39 66.67 C250 81.08, 242.43 86.74, 226.17 88.89 M226.17 88.89 C165.62 88.69, 107.04 88.08, 22.22 88.89 M226.17 88.89 C168.36 88.28, 111.75 87.75, 22.22 88.89 M22.22 88.89 C7.23 87.75, -0.18 81.4, 0 66.67 M22.22 88.89 C9.61 87.87, 1.1 83.6, 0 66.67 M0 66.67 C1.88 54.13, 1.34 39.26, 0 22.22 M0 66.67 C-0.07 54.58, -0.19 43.68, 0 22.22 M0 22.22 C-1.42 6.02, 6.79 -0.76, 22.22 0 M0 22.22 C1.4 7.83, 7.38 -0.84, 22.22 0" stroke="#1e1e1e" stroke-width="2" fill="none"></path></g><g transform="translate(366.3125 275.100390625) rotate(0 65.625 16.80000000000001)"><text x="65.625" y="27.0375" font-family="Cascadia, Segoe UI Emoji" font-size="28px" fill="#1e1e1e" text-anchor="middle" style="white-space: pre;" direction="ltr" dominant-baseline="alphabetic">index.js</text></g><g stroke-linecap="round" transform="translate(164.037109375 12.21484375) rotate(0 124.193359375 44.443359375)"><path d="M22.22 0 C65.55 -2.3, 111.48 -3.61, 226.17 0 C240.19 0.05, 251.36 7.03, 248.39 22.22 C246.74 38.76, 245.98 46.99, 248.39 66.67 C249.42 79.38, 242.83 87.46, 226.17 88.89 C170.02 92.05, 119.67 88.87, 22.22 88.89 C9.62 86.93, 0.98 81.09, 0 66.67 C1.68 56.95, -0.74 39.77, 0 22.22 C0.32 9.12, 4.36 2.66, 22.22 0" stroke="none" stroke-width="0" fill="#ffec99"></path><path d="M22.22 0 C81.55 2.17, 141.22 0.65, 226.17 0 M22.22 0 C64.5 0.85, 106.59 2.5, 226.17 0 M226.17 0 C240.24 1.28, 250.15 8.67, 248.39 22.22 M226.17 0 C242.03 1.38, 249.04 7.13, 248.39 22.22 M248.39 22.22 C247.78 38.87, 248.66 54.94, 248.39 66.67 M248.39 22.22 C247.7 30.94, 247.72 40.42, 248.39 66.67 M248.39 66.67 C246.97 80.24, 239.73 90.84, 226.17 88.89 M248.39 66.67 C248.47 81.45, 241.87 87.82, 226.17 88.89 M226.17 88.89 C173.14 89.82, 123.88 91.92, 22.22 88.89 M226.17 88.89 C163.29 87.96, 99.97 89.24, 22.22 88.89 M22.22 88.89 C8.87 87.7, -0.02 80.42, 0 66.67 M22.22 88.89 C7.83 90.3, 0.48 82.96, 0 66.67 M0 66.67 C1.23 56.32, -0.29 43.99, 0 22.22 M0 66.67 C-0.55 54.5, -0.45 42.39, 0 22.22 M0 22.22 C-0.92 7.34, 5.69 1.3, 22.22 0 M0 22.22 C-0.75 5.71, 6.06 0.5, 22.22 0" stroke="#1e1e1e" stroke-width="2" fill="none"></path></g><g transform="translate(206.19921875 39.85820312499999) rotate(0 82.03125 16.799999999999997)"><text x="82.03125" y="27.0375" font-family="Cascadia, Segoe UI Emoji" font-size="28px" fill="#1e1e1e" text-anchor="middle" style="white-space: pre;" direction="ltr" dominant-baseline="alphabetic">index.html</text></g><g stroke-linecap="round" transform="translate(441.720703125 12.3359375) rotate(0 124.193359375 44.443359375)"><path d="M22.22 0 C81.84 -0.78, 144.05 -0.12, 226.17 0 C237.84 -2.85, 246.79 6.64, 248.39 22.22 C246.56 29.64, 247.71 42.02, 248.39 66.67 C248.66 82.42, 238.96 89.11, 226.17 88.89 C178.74 86.77, 131.5 91.62, 22.22 88.89 C5.63 92.03, 1.11 82.02, 0 66.67 C-0.04 51.25, -1.44 34.49, 0 22.22 C-2.16 10.21, 6.77 3.58, 22.22 0" stroke="none" stroke-width="0" fill="#ffec99"></path><path d="M22.22 0 C82.14 -0.28, 141.34 -1.82, 226.17 0 M22.22 0 C79.34 -1.73, 137.99 -0.52, 226.17 0 M226.17 0 C242.73 -1.15, 247.39 6.87, 248.39 22.22 M226.17 0 C242.08 -1.36, 247.09 5.86, 248.39 22.22 M248.39 22.22 C247.78 31.73, 247 43.44, 248.39 66.67 M248.39 22.22 C248.35 32.13, 248.1 40.42, 248.39 66.67 M248.39 66.67 C248.72 82.46, 242.8 88.74, 226.17 88.89 M248.39 66.67 C247.82 83.51, 241.73 90.03, 226.17 88.89 M226.17 88.89 C178.29 89.82, 127.6 90.9, 22.22 88.89 M226.17 88.89 C172.31 87.9, 118.19 88.08, 22.22 88.89 M22.22 88.89 C6.05 90.16, -1.11 83.34, 0 66.67 M22.22 88.89 C5.19 90.47, -0.81 81.26, 0 66.67 M0 66.67 C-0.66 51.6, 0.96 35.92, 0 22.22 M0 66.67 C1.04 48.76, 0.34 32.6, 0 22.22 M0 22.22 C0.53 6.4, 8.96 -0.47, 22.22 0 M0 22.22 C-0.63 9.18, 6.23 2.18, 22.22 0" stroke="#1e1e1e" stroke-width="2" fill="none"></path></g><g transform="translate(459.2734375 39.97929687499999) rotate(0 106.640625 16.799999999999997)"><text x="106.640625" y="27.0375" font-family="Cascadia, Segoe UI Emoji" font-size="28px" fill="#1e1e1e" text-anchor="middle" style="white-space: pre;" direction="ltr" dominant-baseline="alphabetic">src/**/*.purs</text></g><g stroke-linecap="round"><g transform="translate(548.063207026694 115.466796875) rotate(0 -44.71095364264994 60.043387470580655)"><path d="M-0.96 1.11 C-15.63 20.78, -74.28 98.67, -89.09 118.51 M0.74 0.65 C-14.02 20.38, -75.47 99.87, -90.16 119.44" stroke="#1e1e1e" stroke-width="2" fill="none"></path></g><g transform="translate(548.063207026694 115.466796875) rotate(0 -44.71095364264994 60.043387470580655)"><path d="M-82.71 95.58 C-82.35 100.22, -87.72 104.09, -90.16 119.44 M-82.71 95.58 C-85.7 103.75, -88.15 112.28, -90.16 119.44" stroke="#1e1e1e" stroke-width="2" fill="none"></path></g><g transform="translate(548.063207026694 115.466796875) rotate(0 -44.71095364264994 60.043387470580655)"><path d="M-69.11 105.95 C-71.7 108.27, -79.97 109.93, -90.16 119.44 M-69.11 105.95 C-76.66 110.67, -83.74 115.66, -90.16 119.44" stroke="#1e1e1e" stroke-width="2" fill="none"></path></g></g><mask></mask><g stroke-linecap="round"><g transform="translate(270.27444568147246 112.712890625) rotate(0 0.5870005130599338 166.34937386894597)"><path d="M1.18 -0.01 C1.41 55.35, 0.77 277.02, 0.46 332.64 M0.34 -1.06 C0.57 54.4, 0.27 277.72, -0.06 333.76" stroke="#1e1e1e" stroke-width="2" fill="none"></path></g><g transform="translate(270.27444568147246 112.712890625) rotate(0 0.5870005130599338 166.34937386894597)"><path d="M-8.53 310.24 C-6.58 316.72, -6.02 320.04, -0.06 333.76 M-8.53 310.24 C-5.75 318.12, -2.69 324.96, -0.06 333.76" stroke="#1e1e1e" stroke-width="2" fill="none"></path></g><g transform="translate(270.27444568147246 112.712890625) rotate(0 0.5870005130599338 166.34937386894597)"><path d="M8.57 310.29 C6.74 316.93, 3.51 320.24, -0.06 333.76 M8.57 310.29 C5.84 318.17, 3.38 324.99, -0.06 333.76" stroke="#1e1e1e" stroke-width="2" fill="none"></path></g></g><mask></mask><g stroke-linecap="round"><g transform="translate(383.5378234244555 350.77929687500006) rotate(0 -40.31239496718797 47.57712036514653)"><path d="M0.64 1.13 C-13.1 16.67, -67.79 77.87, -81.26 93.3 M-0.49 0.69 C-13.97 16.35, -65.74 78.77, -79.16 94.47" stroke="#1e1e1e" stroke-width="2" fill="none"></path></g><g transform="translate(383.5378234244555 350.77929687500006) rotate(0 -40.31239496718797 47.57712036514653)"><path d="M-70.59 70.99 C-72.07 78.38, -78.53 89.46, -79.16 94.47 M-70.59 70.99 C-72.81 78.13, -75.75 83.12, -79.16 94.47" stroke="#1e1e1e" stroke-width="2" fill="none"></path></g><g transform="translate(383.5378234244555 350.77929687500006) rotate(0 -40.31239496718797 47.57712036514653)"><path d="M-57.5 81.99 C-64.16 85.11, -75.8 91.82, -79.16 94.47 M-57.5 81.99 C-63.26 86.22, -69.8 88.17, -79.16 94.47" stroke="#1e1e1e" stroke-width="2" fill="none"></path></g></g><mask></mask><g stroke-linecap="round" transform="translate(587.439453125 459.31640625) rotate(0 124.193359375 44.443359375)"><path d="M22.22 0 C65.9 -0.42, 113.08 -1.33, 226.17 0 C240.37 2.56, 246.32 5.97, 248.39 22.22 C248.08 31.41, 245.56 38.87, 248.39 66.67 C245.9 79.23, 242.31 92.35, 226.17 88.89 C157.56 86.82, 87.91 89.33, 22.22 88.89 C8.13 85.57, 0.17 81.43, 0 66.67 C-2.17 55.35, 0.2 36.65, 0 22.22 C0.36 6.2, 5.26 -0.51, 22.22 0" stroke="none" stroke-width="0" fill="#b2f2bb"></path><path d="M22.22 0 C80.57 -0.04, 137.28 -0.57, 226.17 0 M22.22 0 C73.23 0.26, 124.37 0.64, 226.17 0 M226.17 0 C239.42 -1.69, 247.59 8.48, 248.39 22.22 M226.17 0 C242.28 -0.82, 248.19 5.84, 248.39 22.22 M248.39 22.22 C249.42 41.21, 246.12 55.91, 248.39 66.67 M248.39 22.22 C248.89 39.77, 248.56 57.48, 248.39 66.67 M248.39 66.67 C250.17 80.61, 239.09 89.15, 226.17 88.89 M248.39 66.67 C250.44 79.81, 243.01 88.73, 226.17 88.89 M226.17 88.89 C172.08 90.18, 121.91 91.12, 22.22 88.89 M226.17 88.89 C178.58 88.03, 130.84 88.16, 22.22 88.89 M22.22 88.89 C6.32 88.89, 1.3 80.48, 0 66.67 M22.22 88.89 C8.47 87.75, 2.18 82.94, 0 66.67 M0 66.67 C1.59 53.48, 1.37 40.67, 0 22.22 M0 66.67 C0.02 55.54, 0.16 46.24, 0 22.22 M0 22.22 C-0.42 7.03, 8.26 0.96, 22.22 0 M0 22.22 C-1.29 5.52, 8.24 1.9, 22.22 0" stroke="#1e1e1e" stroke-width="2" fill="none"></path></g><g transform="translate(629.6015625 486.95976562500005) rotate(0 82.03125 16.80000000000001)"><text x="82.03125" y="27.0375" font-family="Cascadia, Segoe UI Emoji" font-size="28px" fill="#1e1e1e" text-anchor="middle" style="white-space: pre;" direction="ltr" dominant-baseline="alphabetic">styles.css</text></g><g stroke-linecap="round"><g transform="translate(570.5796315625519 116.740234375) rotate(0 70.08245233815609 162.57833542291078)"><path d="M-0.35 -0.18 C23.11 53.92, 117.22 270.89, 140.51 325.22 M1.67 -1.32 C25 52.88, 116.26 271.72, 139.61 326.47" stroke="#1e1e1e" stroke-width="2" fill="none"></path></g><g transform="translate(570.5796315625519 116.740234375) rotate(0 70.08245233815609 162.57833542291078)"><path d="M122.61 308.14 C127.17 313.47, 131.34 316.79, 139.61 326.47 M122.61 308.14 C127.63 313.28, 133.18 320.1, 139.61 326.47" stroke="#1e1e1e" stroke-width="2" fill="none"></path></g><g transform="translate(570.5796315625519 116.740234375) rotate(0 70.08245233815609 162.57833542291078)"><path d="M138.37 301.5 C138.55 308.65, 138.29 313.83, 139.61 326.47 M138.37 301.5 C138.57 308.51, 139.3 317.36, 139.61 326.47" stroke="#1e1e1e" stroke-width="2" fill="none"></path></g></g><mask></mask><g transform="translate(10 344.900390625) rotate(0 123.046875 33.599999999999994)"><text x="0" y="27.0375" font-family="Cascadia, Segoe UI Emoji" font-size="28px" fill="#1e1e1e" text-anchor="start" style="white-space: pre;" direction="ltr" dominant-baseline="alphabetic">headless chrome</text><text x="0" y="60.6375" font-family="Cascadia, Segoe UI Emoji" font-size="28px" fill="#1e1e1e" text-anchor="start" style="white-space: pre;" direction="ltr" dominant-baseline="alphabetic">  dump-dom</text></g><g transform="translate(315.984375 130.68789062500002) rotate(0 82.03125 33.599999999999994)"><text x="0" y="27.0375" font-family="Cascadia, Segoe UI Emoji" font-size="28px" fill="#1e1e1e" text-anchor="start" style="white-space: pre;" direction="ltr" dominant-baseline="alphabetic">spago</text><text x="0" y="60.6375" font-family="Cascadia, Segoe UI Emoji" font-size="28px" fill="#1e1e1e" text-anchor="start" style="white-space: pre;" direction="ltr" dominant-baseline="alphabetic">bundle-app</text></g><g transform="translate(576.5 235.73789062499998) rotate(66.03587550182411 90.234375 16.80000000000001)"><text x="0" y="27.0375" font-family="Cascadia, Segoe UI Emoji" font-size="28px" fill="#1e1e1e" text-anchor="start" style="white-space: pre;" direction="ltr" dominant-baseline="alphabetic">tailwindcss</text></g><g stroke-linecap="round" transform="translate(846.166015625 456.9872795853298) rotate(0 124.193359375 44.443359375)"><path d="M22.22 0 C103.71 0.77, 181.75 -2.94, 226.17 0 C242.72 -3.5, 251.73 8.61, 248.39 22.22 C246.75 34.64, 246.42 49.13, 248.39 66.67 C250.51 79.6, 239.56 86.31, 226.17 88.89 C157.23 85.89, 93.7 86.04, 22.22 88.89 C10.73 90.09, -1.09 81.04, 0 66.67 C2.32 55.72, -0.34 47.33, 0 22.22 C-2.02 9.6, 6.33 -2.19, 22.22 0" stroke="none" stroke-width="0" fill="#b2f2bb"></path><path d="M22.22 0 C79.41 -0.73, 134.63 -0.01, 226.17 0 M22.22 0 C81.53 1.72, 141.88 2.16, 226.17 0 M226.17 0 C241.3 1.95, 248.79 8.88, 248.39 22.22 M226.17 0 C241.11 0.74, 248.57 5.2, 248.39 22.22 M248.39 22.22 C246.2 37.96, 246.58 54.09, 248.39 66.67 M248.39 22.22 C248.2 33.69, 248.36 47.53, 248.39 66.67 M248.39 66.67 C248.18 80.68, 240.69 89.33, 226.17 88.89 M248.39 66.67 C249.68 80.46, 239.93 89.44, 226.17 88.89 M226.17 88.89 C180.44 88.98, 136.97 87.81, 22.22 88.89 M226.17 88.89 C155.37 89.97, 84.17 90.39, 22.22 88.89 M22.22 88.89 C7.46 88.61, -1.81 80.3, 0 66.67 M22.22 88.89 C8.82 90.31, 1.99 80.01, 0 66.67 M0 66.67 C2.19 49.75, 0.33 34.15, 0 22.22 M0 66.67 C0.1 51.51, -0.6 37.03, 0 22.22 M0 22.22 C1.25 8.5, 5.5 -0.74, 22.22 0 M0 22.22 C2.11 5.96, 7.09 -0.53, 22.22 0" stroke="#1e1e1e" stroke-width="2" fill="none"></path></g><g transform="translate(880.125 467.8306389603298) rotate(0 90.234375 33.60000000000002)"><text x="90.234375" y="27.0375" font-family="Cascadia, Segoe UI Emoji" font-size="28px" fill="#1e1e1e" text-anchor="middle" style="white-space: pre;" direction="ltr" dominant-baseline="alphabetic">responsive </text><text x="90.234375" y="60.6375" font-family="Cascadia, Segoe UI Emoji" font-size="28px" fill="#1e1e1e" text-anchor="middle" style="white-space: pre;" direction="ltr" dominant-baseline="alphabetic">webp files</text></g><g stroke-linecap="round"><g transform="translate(877.9756725277489 115.18063896032982) rotate(0 2.7268674113126394 160.7374503332749)"><path d="M-0.33 -0.09 C0.77 53.62, 4.81 267.75, 5.78 321.59 M1.7 -1.18 C2.69 52.71, 4.27 268.98, 4.73 322.66" stroke="#1e1e1e" stroke-width="2" fill="none"></path></g><g transform="translate(877.9756725277489 115.18063896032982) rotate(0 2.7268674113126394 160.7374503332749)"><path d="M-4.01 299.23 C-2.25 304.36, -1.57 309.32, 4.73 322.66 M-4.01 299.23 C-0.79 308.1, 2.22 315.83, 4.73 322.66" stroke="#1e1e1e" stroke-width="2" fill="none"></path></g><g transform="translate(877.9756725277489 115.18063896032982) rotate(0 2.7268674113126394 160.7374503332749)"><path d="M13.09 299.1 C10.88 304.21, 7.59 309.2, 4.73 322.66 M13.09 299.1 C10.49 308.16, 7.68 315.94, 4.73 322.66" stroke="#1e1e1e" stroke-width="2" fill="none"></path></g></g><mask></mask><g stroke-linecap="round" transform="translate(329.666015625 461.30078125) rotate(0 124.193359375 44.443359375)"><path d="M22.22 0 C96.55 1.75, 167.64 -2.33, 226.17 0 C241.33 2.01, 244.9 6.34, 248.39 22.22 C250.3 36.08, 251.59 54.48, 248.39 66.67 C248.6 81.05, 239.72 91.48, 226.17 88.89 C167.12 90.18, 107.81 86.17, 22.22 88.89 C9.87 92.36, 3.3 79.05, 0 66.67 C3.07 56.81, 3.78 49.91, 0 22.22 C-1.85 3.87, 5.97 2.73, 22.22 0" stroke="none" stroke-width="0" fill="#b2f2bb"></path><path d="M22.22 0 C70.81 0.21, 124.02 -0.11, 226.17 0 M22.22 0 C84.34 0.6, 146.21 1.63, 226.17 0 M226.17 0 C241.39 -1.21, 247.58 6.12, 248.39 22.22 M226.17 0 C239.88 0.67, 249.56 9.6, 248.39 22.22 M248.39 22.22 C246.41 33.59, 247.74 45.89, 248.39 66.67 M248.39 22.22 C247.85 36.88, 249.42 50.75, 248.39 66.67 M248.39 66.67 C250.36 83.12, 239.19 90.78, 226.17 88.89 M248.39 66.67 C246.2 82.03, 240.24 89.8, 226.17 88.89 M226.17 88.89 C168.11 88.72, 108.99 91.26, 22.22 88.89 M226.17 88.89 C180.68 88.31, 134.48 87.57, 22.22 88.89 M22.22 88.89 C5.89 89.68, -0.79 82.83, 0 66.67 M22.22 88.89 C7.78 88.13, -0.01 82.92, 0 66.67 M0 66.67 C1.24 48.16, 1.57 31.82, 0 22.22 M0 66.67 C0.24 50.91, 0.22 34.89, 0 22.22 M0 22.22 C1.79 8.59, 8.61 -0.82, 22.22 0 M0 22.22 C-0.24 6.83, 9.7 -1.3, 22.22 0" stroke="#1e1e1e" stroke-width="2" fill="none"></path></g><g transform="translate(388.234375 488.94414062500005) rotate(0 65.625 16.80000000000001)"><text x="65.625" y="27.0375" font-family="Cascadia, Segoe UI Emoji" font-size="28px" fill="#1e1e1e" text-anchor="middle" style="white-space: pre;" direction="ltr" dominant-baseline="alphabetic">index.js</text></g><g transform="translate(900.83984375 342.862109375) rotate(0 41.015625 16.80000000000001)"><text x="0" y="27.0375" font-family="Cascadia, Segoe UI Emoji" font-size="28px" fill="#1e1e1e" text-anchor="start" style="white-space: pre;" direction="ltr" dominant-baseline="alphabetic">cwebp</text></g><g stroke-linecap="round"><g transform="translate(455.8601631726626 350.169921875) rotate(0 0.521704784775693 46.872114307815224)"><path d="M0.99 -0.16 C1.27 15.54, 0.76 79.47, 0.54 95.03 M0.06 -1.29 C0.33 14.04, 0.18 77.62, -0.03 93.53" stroke="#1e1e1e" stroke-width="2" fill="none"></path></g><g transform="translate(455.8601631726626 350.169921875) rotate(0 0.521704784775693 46.872114307815224)"><path d="M-8.42 69.98 C-6.78 76.03, -2.79 79.47, -0.03 93.53 M-8.42 69.98 C-7.06 75.86, -3.19 81.83, -0.03 93.53" stroke="#1e1e1e" stroke-width="2" fill="none"></path></g><g transform="translate(455.8601631726626 350.169921875) rotate(0 0.521704784775693 46.872114307815224)"><path d="M8.68 70.1 C6.75 76.26, 7.17 79.68, -0.03 93.53 M8.68 70.1 C5.85 76.09, 5.52 82.03, -0.03 93.53" stroke="#1e1e1e" stroke-width="2" fill="none"></path></g></g><mask></mask></svg>